<?xml version="1.0" standalone="no"?>
<!DOCTYPE svg PUBLIC "-//W3C//DTD SVG 20010904//EN"
 "http://www.w3.org/TR/2001/REC-SVG-20010904/DTD/svg10.dtd">
<svg version="1.0" xmlns="http://www.w3.org/2000/svg"
 width="800.000000pt" height="800.000000pt" viewBox="0 0 800.000000 800.000000"
 preserveAspectRatio="xMidYMid meet">
<metadata>
Created by potrace 1.14, written by Peter Selinger 2001-2017
</metadata>
<g transform="translate(0.000000,800.000000) scale(0.100000,-0.100000)"
fill="#000000" stroke="none">
<path d="M4052 6589 c-88 -15 -153 -52 -229 -132 -37 -39 -91 -106 -118 -147
-63 -95 -287 -538 -361 -715 -8 -20 -29 -66 -45 -103 -17 -37 -65 -148 -106
-247 -91 -220 -87 -210 -108 -265 -10 -25 -21 -54 -25 -65 -30 -78 -70 -193
-70 -203 0 -7 -4 -20 -9 -30 -5 -9 -48 -136 -96 -282 -47 -146 -90 -274 -95
-285 -5 -11 -18 -47 -29 -80 -11 -33 -32 -94 -47 -135 -14 -41 -50 -142 -79
-225 -70 -198 -154 -434 -203 -570 -112 -311 -143 -357 -315 -472 -124 -83
-192 -149 -201 -196 -9 -51 10 -133 44 -181 69 -101 208 -194 321 -217 73 -14
179 -3 269 29 220 76 393 235 562 517 53 88 68 118 133 260 32 70 38 85 99
225 l32 75 45 -1 c24 -1 87 -6 139 -12 52 -6 241 -16 420 -23 286 -11 354 -10
565 4 313 22 290 24 305 -15 7 -18 16 -42 21 -53 4 -11 22 -56 39 -100 17 -44
35 -89 40 -100 5 -11 21 -51 36 -90 14 -38 34 -90 45 -115 11 -25 27 -61 36
-80 78 -177 169 -341 231 -415 37 -45 118 -103 191 -137 58 -27 78 -31 156
-32 176 -2 326 80 557 302 114 109 171 183 161 208 -5 13 -37 25 -164 59 -160
44 -208 114 -383 560 -37 94 -71 179 -75 190 -5 11 -17 40 -26 65 -10 25 -23
59 -30 75 -7 17 -61 158 -120 315 -58 157 -113 301 -120 320 -7 19 -32 87 -55
150 -23 63 -46 124 -50 135 -5 11 -16 43 -25 70 -10 28 -21 59 -25 70 -4 11
-15 40 -23 65 -42 125 -192 529 -218 587 -11 23 -19 49 -19 57 0 8 -4 17 -9
20 -5 3 -12 17 -15 31 -6 23 -23 63 -72 172 -8 17 -14 34 -14 38 0 20 -224
478 -271 552 -21 34 -39 65 -39 69 0 13 -124 191 -195 279 -120 151 -184 208
-245 220 -19 3 -42 8 -50 9 -8 2 -39 0 -68 -5z m28 -1222 c0 -5 6 -23 14 -40
7 -18 21 -52 31 -77 10 -25 24 -59 31 -77 8 -17 14 -36 14 -42 0 -6 4 -19 9
-29 9 -15 42 -106 159 -427 42 -115 152 -443 195 -580 53 -170 60 -196 56
-199 -13 -13 -876 -42 -942 -32 -52 8 -57 19 -37 80 5 17 18 67 29 111 18 75
32 127 80 308 11 39 38 137 61 217 23 80 48 168 55 195 74 276 165 636 165
652 0 6 5 24 11 40 l11 28 29 -59 c16 -33 29 -64 29 -69z"/>
</g>
</svg>
