<?xml version="1.0" standalone="no"?>
<!DOCTYPE svg PUBLIC "-//W3C//DTD SVG 20010904//EN"
 "http://www.w3.org/TR/2001/REC-SVG-20010904/DTD/svg10.dtd">
<svg version="1.0" xmlns="http://www.w3.org/2000/svg"
 width="500.000000pt" height="500.000000pt" viewBox="0 0 500.000000 500.000000"
 preserveAspectRatio="xMidYMid meet">
<metadata>
Created by potrace 1.14, written by Peter Selinger 2001-2017
</metadata>
<g transform="translate(0.000000,500.000000) scale(0.100000,-0.100000)"
fill="#000000" stroke="none">
<path d="M2245 3850 c-278 -52 -513 -176 -715 -379 -208 -209 -338 -458 -385
-739 -22 -128 -16 -406 10 -522 121 -536 528 -937 1076 -1056 117 -26 418 -26
537 -1 256 56 493 178 663 342 45 44 66 57 108 66 56 12 69 29 22 29 l-30 0
70 93 c111 147 202 348 245 542 21 97 29 339 15 448 -54 404 -267 745 -609
974 -155 104 -338 176 -521 207 -129 22 -356 20 -486 -4z m535 -89 c247 -57
450 -171 635 -356 236 -235 356 -516 372 -865 6 -150 -11 -281 -58 -426 -33
-104 -100 -248 -152 -324 -37 -55 -146 -190 -153 -190 -21 0 -120 58 -160 93
-145 127 -242 319 -424 837 -175 498 -203 568 -262 656 -56 83 -88 111 -172
150 -52 24 -67 26 -144 22 -87 -5 -202 -34 -202 -51 0 -5 14 -5 33 0 17 4 70
8 117 8 74 0 91 -3 131 -27 48 -28 109 -90 109 -110 0 -13 -390 -955 -445
-1074 -37 -82 -83 -123 -145 -131 -22 -3 -40 -10 -40 -14 0 -5 83 -9 185 -9
117 0 185 4 185 10 0 6 -11 10 -24 10 -29 0 -66 42 -66 74 0 11 31 100 68 196
l68 175 254 0 255 0 60 -170 c68 -191 126 -320 187 -410 88 -131 219 -240 327
-272 l55 -15 -35 -29 c-63 -54 -208 -148 -281 -182 -329 -156 -710 -167 -1044
-32 -344 138 -625 435 -737 780 -47 142 -58 206 -64 366 -4 122 -2 178 12 259
31 187 99 357 208 520 64 96 241 273 337 337 158 106 343 180 515 208 125 20
380 13 495 -14z m-150 -1000 c49 -144 90 -269 90 -277 0 -12 -36 -14 -230 -14
-126 0 -230 2 -230 4 0 6 231 599 238 610 9 16 40 -59 132 -323z"/>
</g>
</svg>
